Motion_mu04
version=1
nRows=8
nColumns=43
inDegrees=yes
endheader
time	pelvis_tilt	pelvis_list	pelvis_rotation	pelvis_tx	pelvis_ty	pelvis_tz	hip_flexion_r	hip_adduction_r	hip_rotation_r	knee_angle_r	ankle_angle_r	subtalar_angle_r	mtp_angle_r	hip_flexion_l	hip_adduction_l	hip_rotation_l	knee_angle_l	ankle_angle_l	subtalar_angle_l	mtp_angle_l	lumbar_extension	lumbar_bending	lumbar_rotation	neck_flexion	neck_lateral_bending	neck_rotation	arm_flex_r	arm_add_r	arm_rot_r	elbow_flex_r	pro_sup_r	wrist_flex_r	wrist_dev_r	hand_finger_flex_r	arm_flex_l	arm_add_l	arm_rot_l	elbow_flex_l	pro_sup_l	wrist_flex_l	wrist_dev_l	hand_finger_flex_l
      2.40000000	     -0.15568841	     26.98578855	    -91.13175649	      0.01182744	      1.98029567	      1.05997214	     53.53315210	     -5.39334004	    -25.13817916	     -4.01640196	    -16.17671175	     -0.13269798	    -18.80401066	     54.07030722	     -1.53994025	     -4.40182216	    -13.40901591	     10.80666313	      9.57786087	    -29.12485836	     -3.63661021	      1.08888919	     16.17711344	     -8.13960614	     -8.66414641	     34.21954303	   -205.89449220	   -167.52583982	   -198.88225595	     64.00591619	    172.71753512	    -57.09422902	    -24.99999983	     89.13294949	   -178.76169915	    195.06273963	   -151.65592363	     47.25941400	    154.00789878	    -90.00021046	    -16.81337432	     90.00021046
      2.40250000	     -0.18819033	     26.84204387	    -91.02850879	      0.01198140	      1.97979802	      1.05962474	     53.47887172	     -5.39080710	    -25.14049710	     -4.08574817	    -16.16418106	     -0.14717076	    -18.78677690	     54.08036173	     -1.52935565	     -4.35760865	    -13.47398384	     10.82889647	      9.59882113	    -29.12500905	     -3.83829546	      1.11979916	     15.98635599	     -7.96334385	     -8.67041119	     34.31876481	   -206.02146063	   -167.47619944	   -198.85555245	     64.41074398	    172.67348284	    -57.08580976	    -24.99999983	     89.11687955	   -179.05797998	    195.30421589	   -151.80586929	     47.96006940	    153.91544411	    -90.00021046	    -16.88471927	     90.00021046
      2.40500000	     -0.18899965	     26.77487032	    -90.97690474	      0.01209621	      1.97938012	      1.05919898	     53.47102275	     -5.36808567	    -25.13977424	     -4.10696335	    -16.16246327	     -0.14741946	    -18.78359170	     54.11279456	     -1.51979281	     -4.34609089	    -13.47262529	     10.83478980	      9.60387901	    -29.12492233	     -3.90169900	      1.11575233	     15.96529059	     -7.92130230	     -8.67365320	     34.33908788	   -206.11235320	   -167.42831749	   -198.86190190	     64.46111314	    172.66779595	    -57.08194307	    -24.99999983	     89.11388863	   -179.14915991	    195.44562465	   -151.86244633	     48.07505001	    153.89391080	    -90.00021046	    -16.89283443	     90.00021046
      2.40750000	     -0.27462815	     26.46491725	    -90.78006341	      0.01207459	      1.97886183	      1.05925383	     53.21774463	     -5.36813699	    -25.19218629	     -4.21164885	    -15.81638942	     -0.14639198	    -18.56633841	     53.93401973	     -1.51188435	     -4.12934265	    -13.53224780	     11.19740466	      9.68071087	    -29.11329968	     -4.43585307	      1.23264275	     14.46617988	     -6.64588639	     -9.38385033	     35.77411281	   -205.44982334	   -166.86419959	   -197.68453599	     64.91866045	    172.78190610	    -56.42424870	    -24.99999983	     88.94435305	   -180.85273153	    195.79920868	   -154.17539116	     50.22252355	    153.17469084	    -89.47211889	    -17.47346868	     90.00021046
      2.41000000	     -0.27357310	     26.38394719	    -90.63635323	      0.01226320	      1.97819514	      1.05880623	     53.24097224	     -5.42846675	    -25.19547703	     -4.30513375	    -15.88140242	     -0.13067541	    -18.56278260	     54.03609312	     -1.45416487	     -4.09708363	    -13.63248598	     11.10655722	      9.71657319	    -29.12557960	     -4.54200344	      1.21451622	     14.35429848	     -6.66279786	     -9.21847883	     35.78886828	   -205.68835397	   -166.87532619	   -197.74907509	     65.37095223	    172.71351379	    -56.46928608	    -24.99999983	     88.93892151	   -180.99825726	    195.97017481	   -154.23154331	     50.69201612	    153.19148195	    -89.48031165	    -17.56601037	     90.00021046
      2.41250000	     -0.31201257	     26.26311210	    -90.54531063	      0.01242547	      1.97748416	      1.05840724	     53.23386640	     -5.43460584	    -25.20053104	     -4.43451094	    -15.91155151	     -0.12081623	    -18.55384156	     54.08222035	     -1.45333763	     -4.02371717	    -13.72474965	     11.05609213	      9.75223069	    -29.13420615	     -4.70946513	      1.22275214	     14.28194598	     -6.56273774	     -9.09480052	     35.80693452	   -205.88958607	   -166.85602058	   -197.81906567	     65.74070385	    172.65139843	    -56.48916856	    -24.99999983	     88.93108844	   -181.21675886	    196.19370687	   -154.30054680	     51.32722451	    153.20672044	    -89.48071744	    -17.66735358	     90.00021046
      2.41500000	     -0.33736746	     26.11176782	    -90.45041213	      0.01258608	      1.97678779	      1.05798978	     53.19999387	     -5.44708032	    -25.19902886	     -4.56495681	    -15.90621242	     -0.11419726	    -18.53920615	     54.09808584	     -1.44472756	     -3.92847914	    -13.81369460	     11.05663567	      9.78456821	    -29.13813839	     -4.93174080	      1.23522235	     14.16347430	     -6.36322522	     -8.99582585	     35.83384494	   -206.07810419	   -166.80945620	   -197.85738493	     66.17673406	    172.58940823	    -56.49530920	    -24.99999983	     88.92242119	   -181.45597980	    196.40017007	   -154.44684676	     51.98386038	    153.20685604	    -89.44541471	    -17.75950316	     90.00021046
      2.41750000	     -0.35922293	     25.80732804	    -90.34866357	      0.01251938	      1.97624893	      1.05794372	     52.95727660	     -5.44521939	    -25.19813787	     -4.68943324	    -15.49900917	     -0.00860749	    -18.30956826	     53.89107279	     -1.43151539	     -3.72409159	    -13.86372487	     11.40871323	      9.73392249	    -29.14193940	     -5.40169302	      1.25872813	     13.21480649	     -5.36279668	     -9.44225715	     36.75684759	   -205.64984816	   -166.43156845	   -197.10933315	     66.44929555	    172.62315040	    -55.87852975	    -24.99999983	     88.87879202	   -182.67303332	    196.59890237	   -156.38522952	     53.49519681	    153.28746216	    -87.73043562	    -18.51974110	     90.00021046
